<svg xmlns="http://www.w3.org/2000/svg" version="1.1" xmlns:xlink="http://www.w3.org/1999/xlink" xmlns:svgjs="http://svgjs.dev/svgjs" width="129.668" height="129.668"><svg xmlns="http://www.w3.org/2000/svg" viewBox="0 0 129.668 129.668"><path fill-opacity=".997" d="M0 0h129.668v129.668H0z" paint-order="markers fill stroke"></path><g style="line-height:100%;-inkscape-font-specification:roboto" word-spacing="0"><path fill="#fff" d="M87.83 135.872v32.713H74.874v-41.593h12.147Zm-1.538 10.494-3.037.077q0-4.767 1.153-8.495 1.153-3.768 3.268-6.382 2.114-2.614 5.035-3.959 2.96-1.384 6.574-1.384 2.883 0 5.266.846 2.422.846 4.152 2.73 1.768 1.883 2.69 4.996.962 3.076.962 7.612v26.178H99.323v-26.217q0-2.498-.692-3.805-.692-1.346-1.999-1.846-1.307-.5-3.19-.5-2 0-3.383.77-1.384.768-2.23 2.152-.807 1.346-1.191 3.19-.346 1.846-.346 4.037zm49.127 22.219h-13.031v-44.976q0-4.843 1.96-8.15 1.96-3.305 5.535-4.997 3.575-1.73 8.457-1.73 1.692 0 3.191.231 1.5.23 2.922.577l.038 9.533q-.692-.192-1.422-.269-.73-.077-1.807-.077-1.884 0-3.19.577-1.308.538-2 1.653-.653 1.076-.653 2.652zm8.072-41.593v8.995h-27.1v-8.995z" aria-label="nf" font-family="roboto" font-size="78.727" font-weight="900" letter-spacing="0" style="-inkscape-font-specification:&quot;roboto, Heavy&quot;" transform="translate(-44.19 -73.825)"></path></g></svg><style>@media (prefers-color-scheme: light) { :root { filter: none; } }
@media (prefers-color-scheme: dark) { :root { filter: none; } }
</style></svg>