<?xml version="1.0" standalone="no"?>
<!DOCTYPE svg PUBLIC "-//W3C//DTD SVG 20010904//EN"
 "http://www.w3.org/TR/2001/REC-SVG-20010904/DTD/svg10.dtd">
<svg version="1.0" xmlns="http://www.w3.org/2000/svg"
 width="512.000000pt" height="512.000000pt" viewBox="0 0 512.000000 512.000000"
 preserveAspectRatio="xMidYMid meet">
<metadata>
Created by potrace 1.14, written by Peter Selinger 2001-2017
</metadata>
<g transform="translate(0.000000,512.000000) scale(0.100000,-0.100000)"
fill="#000000" stroke="none">
<path d="M0 4215 l0 -905 1090 545 c973 486 1095 545 1137 545 101 0 181 -72
191 -169 5 -51 -7 -82 -158 -421 l-51 -115 77 85 c443 489 843 715 1234 697
212 -10 374 -72 496 -192 117 -115 164 -236 164 -424 0 -271 -106 -558 -460
-1241 -337 -653 -432 -900 -434 -1125 -1 -102 1 -113 26 -156 48 -82 146 -129
343 -165 136 -25 411 -24 550 0 256 46 480 121 745 252 l170 83 0 1806 0 1805
-2560 0 -2560 0 0 -905z"/>
<path d="M3315 4079 c-423 -120 -935 -671 -1499 -1612 -231 -385 -415 -726
-694 -1283 -183 -367 -201 -392 -284 -415 -79 -21 -171 19 -207 89 -27 55 -33
89 -21 132 6 21 285 661 620 1421 335 760 608 1384 606 1386 -2 2 -416 -202
-920 -454 l-916 -458 0 -1442 0 -1443 2560 0 2560 0 0 540 c0 297 -2 540 -4
540 -2 0 -53 -22 -113 -49 -577 -260 -1124 -323 -1601 -185 -252 73 -418 231
-479 455 -26 95 -23 293 7 424 55 247 145 458 477 1115 315 626 393 824 396
1015 1 132 -38 184 -172 225 -84 27 -220 26 -316 -1z"/>
</g>
</svg>
